<svg xmlns="http://www.w3.org/2000/svg" viewBox="0 0 358.41 316.23"><g id="Layer_2" data-name="Layer 2"><g id="Layer_1-2" data-name="Layer 1"><path d="M257.6,0a100.8,100.8,0,0,0-78.4,37.52A100.8,100.8,0,0,0,0,100.8a167.29,167.29,0,0,0,30.52,97.55c21.9,30.86,63.73,75.44,138.66,112.89l10,5,10-5C264.16,273.78,306,229.15,327.89,198.35a167.15,167.15,0,0,0,30.52-97.55A100.8,100.8,0,0,0,257.61,0Zm33.6,172.37c-18,25.31-51.8,61.6-112,93.63-60.31-32.09-94.19-68.32-112-93.63A122.67,122.67,0,0,1,44.81,100.8a56,56,0,0,1,112,0H201.6a56,56,0,0,1,112,0,122.65,122.65,0,0,1-22.4,71.63Z"/></g></g></svg>